
<svg width="1680" height="297" viewBox="0 0 1680 297" fill="none" xmlns="http://www.w3.org/2000/svg">
<rect width="1680" height="297" fill="#730B39"/>
<mask id="mask0_1_2637" style="mask-type:alpha" maskUnits="userSpaceOnUse" x="0" y="0" width="1680" height="297">
<rect width="1680" height="297" fill="#730B39"/>
</mask>
<g mask="url(#mask0_1_2637)">
<path d="M1166.7 215.718L1177.06 226.073L1187.42 215.718L1177.06 205.363L1166.7 215.718Z" fill="#29B9A0"/>
<path d="M1101.73 215.73L1114.81 228.805L1127.89 215.73L1114.81 202.654L1101.73 215.73Z" fill="#29B9A0"/>
<path d="M1036.84 215.716L1051.85 230.712L1066.85 215.716L1051.85 200.72L1036.84 215.716Z" fill="#29B9A0"/>
<path d="M974.067 215.729L990.303 231.959L1006.54 215.729L990.303 199.499L974.067 215.729Z" fill="#29B9A0"/>
<path d="M909 215.732L927.248 233.974L945.497 215.732L927.248 197.49L909 215.732Z" fill="#29B9A0"/>
<path d="M1665.04 56.3806H1673.25V29.9361H1665.04V56.3806Z" fill="#29B9A0"/>
<path d="M1691.49 38.1674V29.9561L1665.04 29.9561V38.1674L1691.49 38.1674Z" fill="#29B9A0"/>
<path d="M1673.26 -4.03638H1664.18V5.04788H1673.26V-4.03638Z" fill="#29B9A0"/>
<path d="M1633.26 72.5958C1635.33 72.1076 1636.61 70.0356 1636.13 67.9678C1635.64 65.9001 1633.56 64.6196 1631.5 65.1079C1629.43 65.5961 1628.15 67.6682 1628.63 69.7359C1629.12 71.8036 1631.2 73.0841 1633.26 72.5958Z" fill="#29B9A0"/>
<path d="M1626.79 69.1873C1626.95 72.1615 1629.41 74.5538 1632.42 74.5538C1635.43 74.5538 1637.88 72.1615 1638.05 69.1873H1640.83C1640.67 73.6809 1636.95 77.3017 1632.42 77.3017C1627.86 77.3017 1624.17 73.6809 1624.01 69.1873H1626.79Z" fill="#29B9A0"/>
<path d="M1614.47 58.8878C1616.54 58.3996 1617.82 56.3275 1617.34 54.2598C1616.85 52.1921 1614.77 50.9116 1612.71 51.3999C1610.64 51.8881 1609.36 53.9602 1609.84 56.0279C1610.33 58.0956 1612.41 59.3761 1614.47 58.8878Z" fill="#29B9A0"/>
<path d="M1608 55.4802C1608.16 58.4544 1610.62 60.8467 1613.63 60.8467C1616.64 60.8467 1619.09 58.4544 1619.26 55.4802H1622.04C1621.88 59.9739 1618.16 63.5946 1613.63 63.5946C1609.07 63.5946 1605.38 59.9739 1605.22 55.4802H1608Z" fill="#29B9A0"/>
<path d="M1638.6 111.555H1655.26V107.611H1638.6V111.555Z" fill="#29B9A0"/>
<path d="M1641.01 99.3887H1653.2V95.4446H1641.01V99.3887Z" fill="#29B9A0"/>
<path d="M1647.13 86.386L1653.21 95.4056H1641.02L1647.13 86.386Z" fill="#29B9A0"/>
<path d="M1650.32 141.156H1655.27V136.21H1650.32V141.156Z" fill="#29B9A0"/>
<path d="M1635.11 159.811H1640.06V154.865H1635.11V159.811Z" fill="#29B9A0"/>
<path d="M1179.91 76.8168L1174.9 80.179V73.4224L1179.91 76.8168Z" fill="#29B9A0"/>
<path d="M1216.67 37.094L1201.26 52.9575L1202.37 54.0386L1217.79 38.1751L1216.67 37.094Z" fill="#29B9A0"/>
<path d="M1194.6 108.803C1196.3 108.401 1197.36 106.694 1196.95 104.991C1196.55 103.289 1194.84 102.234 1193.14 102.636C1191.44 103.038 1190.38 104.745 1190.78 106.448C1191.19 108.15 1192.89 109.205 1194.6 108.803Z" fill="#29B9A0"/>
<path d="M1308.56 179.491L1240.52 247.898H1218.69V234.579L1274.22 179.491H1308.56Z" fill="#29B9A0"/>
<path d="M1644.55 46.658H1655.06V-14.5395H1644.55V46.658Z" fill="#D31F35"/>
<path d="M1644.55 83.999H1655.06V56.3583H1644.55V83.999Z" fill="#D31F35"/>
<path d="M1744 84.0052V73.4985L1665.05 73.4985V84.0052L1744 84.0052Z" fill="#D31F35"/>
<path d="M1665.04 84.0095H1673.25V63.5134H1665.04V84.0095Z" fill="#D31F35"/>
<path d="M1664.18 5.01562H1655.09V14.0999H1664.18V5.01562Z" fill="#D31F35"/>
<path d="M1598.22 34.8164L1645.15 34.8164V32.2948L1598.22 32.2948V34.8164Z" fill="#D31F35"/>
<path d="M1407.37 84.0024L1697.01 84.0024V81.4808L1407.37 81.4808V84.0024Z" fill="#D31F35"/>
<path d="M1599.45 179.156H1695.86V176.634H1599.45V179.156Z" fill="#D31F35"/>
<path d="M1407.37 273.337H1600.77V270.816H1407.37V273.337Z" fill="#D31F35"/>
<path d="M1598.2 32.2755V273.315H1600.72V32.2755H1598.2Z" fill="#D31F35"/>
<path d="M1477.81 272.051V343.982H1480.33V272.051H1477.81Z" fill="#D31F35"/>
<path d="M1171.3 132.994V32.2266H1168.78V132.994H1171.3Z" fill="#D31F35"/>
<path d="M1217.43 32.2361H1168.76V34.7577H1217.43V32.2361Z" fill="#D31F35"/>
<path d="M1217.43 130.482H1168.76V133.003H1217.43V130.482Z" fill="#D31F35"/>
<path d="M1217.43 81.3428H1168.76V83.8644H1217.43V81.3428Z" fill="#D31F35"/>
<path d="M1191.11 82.6055V33.9514H1188.58V82.6055H1191.11Z" fill="#D31F35"/>
<path d="M1644.52 35.1826V83.3518H1647.04V35.1826H1644.52Z" fill="#D31F35"/>
<path d="M1407.35 78.7476V369.023H1409.88V78.7476H1407.35Z" fill="#D31F35"/>
<path d="M1216.16 -15.0596V369.001H1218.69V-15.0596H1216.16Z" fill="#D31F35"/>
<path d="M1475.77 153.584L1504.9 182.707L1534.03 153.584L1504.9 124.461L1475.77 153.584Z" fill="#D31F35"/>
<path d="M1632.42 45.4261C1634.54 45.4261 1636.27 43.7037 1636.27 41.579C1636.27 39.4543 1634.54 37.7319 1632.42 37.7319C1630.29 37.7319 1628.57 39.4543 1628.57 41.579C1628.57 43.7037 1630.29 45.4261 1632.42 45.4261Z" fill="#D31F35"/>
<path d="M1626.79 41.8699C1626.95 44.8441 1629.41 47.2364 1632.42 47.2364C1635.43 47.2364 1637.88 44.8441 1638.05 41.8699H1640.83C1640.67 46.3635 1636.95 49.9843 1632.42 49.9843C1627.86 49.9843 1624.17 46.3635 1624.01 41.8699H1626.79Z" fill="#D31F35"/>
<path d="M1633.26 58.8893C1635.33 58.401 1636.61 56.329 1636.12 54.2613C1635.64 52.1935 1633.56 50.9131 1631.49 51.4014C1629.43 51.8896 1628.15 53.9616 1628.63 56.0294C1629.12 58.0971 1631.2 59.3775 1633.26 58.8893Z" fill="#D31F35"/>
<path d="M1626.79 55.48C1626.95 58.4542 1629.41 60.8465 1632.42 60.8465C1635.43 60.8465 1637.88 58.4542 1638.05 55.48H1640.83C1640.67 59.9736 1636.95 63.5944 1632.42 63.5944C1627.86 63.5944 1624.17 59.9736 1624.01 55.48H1626.79Z" fill="#D31F35"/>
<path d="M1613.63 45.4261C1615.75 45.4261 1617.48 43.7037 1617.48 41.579C1617.48 39.4543 1615.75 37.7319 1613.63 37.7319C1611.5 37.7319 1609.78 39.4543 1609.78 41.579C1609.78 43.7037 1611.5 45.4261 1613.63 45.4261Z" fill="#D31F35"/>
<path d="M1608 41.8699C1608.16 44.8441 1610.62 47.2364 1613.63 47.2364C1616.64 47.2364 1619.09 44.8441 1619.26 41.8699H1622.04C1621.88 46.3635 1618.16 49.9843 1613.63 49.9843C1609.07 49.9843 1605.38 46.3635 1605.22 41.8699H1608Z" fill="#D31F35"/>
<path d="M1614.48 72.5941C1616.54 72.1059 1617.83 70.0338 1617.34 67.9661C1616.85 65.8984 1614.78 64.6179 1612.71 65.1062C1610.64 65.5944 1609.36 67.6665 1609.85 69.7342C1610.33 71.8019 1612.41 73.0824 1614.48 72.5941Z" fill="#D31F35"/>
<path d="M1608 69.1873C1608.16 72.1615 1610.62 74.5538 1613.63 74.5538C1616.64 74.5538 1619.09 72.1615 1619.26 69.1873H1622.04C1621.88 73.6809 1618.16 77.3017 1613.63 77.3017C1609.07 77.3017 1605.38 73.6809 1605.22 69.1873H1608Z" fill="#D31F35"/>
<path d="M1458.75 151.269L1458.88 153.467C1460.21 178.037 1480.42 197.272 1504.9 197.272C1529.38 197.272 1549.6 178.037 1550.92 153.467L1551.05 151.269H1579.51L1579.41 153.661C1577.99 194.007 1545.26 225.624 1504.9 225.624C1464.54 225.624 1431.81 194.007 1430.39 153.661L1430.29 151.269H1458.75Z" fill="#D31F35"/>
<path d="M1217.04 331.822C1221.05 332.728 1225.22 333.245 1229.52 333.245C1259.54 333.245 1284.31 309.677 1285.92 279.548L1286.05 276.864H1320.92L1320.82 279.806C1319.07 329.236 1278.97 367.965 1229.52 367.965C1225.29 367.965 1221.11 367.674 1217.04 367.125V331.822Z" fill="#D31F35"/>
<path d="M1685.97 178.36L1687.2 177.455C1686.98 177.164 1681.77 170.278 1673.39 168.856C1667.22 168.274 1610.43 163.392 1609.85 163.327L1609 163.263V177.94H1610.56V164.944C1617.67 165.558 1667.51 169.825 1673.2 170.375C1680.9 171.668 1685.91 178.295 1685.97 178.36Z" fill="#D31F35"/>
<path d="M1669.55 169.308H1671.1V153.564C1671.1 153.338 1670.81 149.2 1665.31 147.26C1660.26 145.482 1628.6 135.816 1628.28 135.719L1627.28 135.428V165.687H1628.83V137.529C1634.26 139.178 1660.26 147.163 1664.79 148.747C1669.29 150.331 1669.55 153.499 1669.58 153.629L1669.55 169.308Z" fill="#D31F35"/>
<path d="M1662.92 147.551H1664.47V130.32C1664.44 129.997 1664.14 127.508 1659.84 125.503C1655.83 123.628 1634.62 114.609 1634.42 114.512L1633.36 114.059V138.435H1634.91V116.387C1639.31 118.262 1655.77 125.245 1659.2 126.893C1662.69 128.542 1662.95 130.385 1662.95 130.417L1662.92 147.551Z" fill="#D31F35"/>
<path d="M1655.25 111.57H1653.7V123.951H1655.25V111.57Z" fill="#D31F35"/>
<path d="M1640.18 111.57H1638.63V117.744H1640.18V111.57Z" fill="#D31F35"/>
<path d="M1653.21 99.2202H1651.66V107.852H1653.21V99.2202Z" fill="#D31F35"/>
<path d="M1642.57 99.2202H1641.02V107.852H1642.57V99.2202Z" fill="#D31F35"/>
<path d="M1650.32 133.864H1655.27V128.917H1650.32V133.864Z" fill="#D31F35"/>
<path d="M1655.75 156.765H1660.7V151.819H1655.75V156.765Z" fill="#D31F35"/>
<path d="M1655.75 164.058H1660.7V159.111H1655.75V164.058Z" fill="#D31F35"/>
<path d="M1635.11 152.486H1640.06V147.54H1635.11V152.486Z" fill="#D31F35"/>
<path d="M1639.72 129.874H1644.67V124.928H1639.72V129.874Z" fill="#D31F35"/>
<path d="M1639.72 137.166H1644.67V132.22H1639.72V137.166Z" fill="#D31F35"/>
<path d="M1362.15 21.4707H1409.88V144.092H1362.15V21.4707ZM1381.3 81.472L1389.41 89.5864L1397.53 81.472L1389.41 73.3576L1381.3 81.472Z" fill="#D31F35"/>
<path d="M1350.48 62.7217V98.0888C1341.55 97.119 1334.63 89.5865 1334.63 80.4053C1334.63 71.2563 1341.55 63.6915 1350.48 62.7217Z" fill="#D31F35"/>
<path d="M1273.76 -6.10536L1243.75 -17H1409.88V10.7377H1350.48V46.7191C1332.72 47.7213 1318.62 62.4306 1318.62 80.4052C1318.62 98.4121 1332.72 113.089 1350.48 114.091V154.89H1409.88V179.491H1243.75V179.168L1273.73 168.274L1243.75 157.347L1273.73 146.452L1243.75 135.557L1273.73 124.663L1243.75 113.768L1273.73 102.873L1243.75 91.9787L1273.73 81.0841L1243.75 70.1895L1273.73 59.2948L1243.75 48.4002L1273.73 37.4732L1243.75 26.5786L1273.73 15.6839L1243.75 4.78928L1273.76 -6.10536Z" fill="#D31F35"/>
<path d="M1244.66 179.168C1244.66 179.201 1244.66 179.233 1244.69 179.265H1244.5L1217.78 205.968V179.168H1244.66Z" fill="#D31F35"/>
<path d="M1175.26 58.2927C1175.26 50.243 1181.79 43.7126 1189.84 43.7126C1197.89 43.7126 1204.43 50.243 1204.43 58.2927C1204.43 66.3425 1197.89 72.8728 1189.84 72.8728C1181.79 72.8728 1175.26 66.3425 1175.26 58.2927ZM1177.58 58.2927C1177.58 65.0493 1183.08 70.5451 1189.84 70.5451C1196.6 70.5451 1202.1 65.0493 1202.1 58.2927C1202.1 51.5361 1196.6 46.0403 1189.84 46.0403C1183.08 46.0403 1177.58 51.5361 1177.58 58.2927Z" fill="#D31F35"/>
<path d="M1186.58 58.2927C1186.58 60.1031 1188.03 61.5579 1189.84 61.5579C1191.65 61.5579 1193.11 60.1031 1193.11 58.2927C1193.11 56.4824 1191.65 55.0276 1189.84 55.0276C1188.03 55.0276 1186.58 56.4824 1186.58 58.2927ZM1188.87 58.2927C1188.87 57.7755 1189.29 57.3229 1189.84 57.3229C1190.39 57.3229 1190.81 57.7432 1190.81 58.2927C1190.81 58.81 1190.39 59.2626 1189.84 59.2626C1189.29 59.2626 1188.87 58.81 1188.87 58.2927Z" fill="#D31F35"/>
<path d="M1201.34 65.569L1200.24 66.6587L1216.52 83.1624L1217.63 82.0728L1201.34 65.569Z" fill="#D31F35"/>
<path d="M1215.62 33.3984L1200.21 49.262L1201.33 50.3431L1216.74 34.4795L1215.62 33.3984Z" fill="#D31F35"/>
<path d="M1217.43 56.9348H1203.26V58.4866H1217.43V56.9348Z" fill="#D31F35"/>
<path d="M1190.36 79.8234H1214.32V58.2927H1212.77V78.2716H1190.36V79.8234Z" fill="#D31F35"/>
<path d="M1189.84 75.7822H1210.28V57.7107H1208.73V74.2628H1189.84V75.7822Z" fill="#D31F35"/>
<path d="M1200.19 39.9948H1206.17V33.4968H1204.65V38.4431H1200.19V39.9948Z" fill="#D31F35"/>
<path d="M1210.02 121.222C1211.73 120.82 1212.78 119.114 1212.38 117.411C1211.98 115.708 1210.27 114.654 1208.57 115.056C1206.86 115.458 1205.81 117.164 1206.21 118.867C1206.61 120.57 1208.32 121.624 1210.02 121.222Z" fill="#D31F35"/>
<path d="M1202.01 120.402C1203.25 119.164 1203.25 117.158 1202.01 115.921C1200.77 114.684 1198.76 114.684 1197.53 115.921C1196.29 117.158 1196.29 119.164 1197.53 120.402C1198.76 121.639 1200.77 121.639 1202.01 120.402Z" fill="#D31F35"/>
<path d="M1191.47 120.404C1192.7 119.167 1192.7 117.161 1191.47 115.924C1190.23 114.687 1188.22 114.687 1186.99 115.924C1185.75 117.161 1185.75 119.167 1186.99 120.404C1188.22 121.642 1190.23 121.642 1191.47 120.404Z" fill="#D31F35"/>
<path d="M1182.6 119.377C1183.27 117.76 1182.51 115.907 1180.89 115.237C1179.27 114.568 1177.42 115.335 1176.75 116.952C1176.08 118.569 1176.85 120.422 1178.46 121.092C1180.08 121.761 1181.93 120.994 1182.6 119.377Z" fill="#D31F35"/>
<path d="M1206.64 108C1207.88 106.763 1207.88 104.757 1206.64 103.52C1205.4 102.283 1203.4 102.283 1202.16 103.52C1200.92 104.757 1200.92 106.763 1202.16 108C1203.4 109.238 1205.4 109.238 1206.64 108Z" fill="#D31F35"/>
<path d="M1186.55 107.989C1187.79 106.752 1187.79 104.746 1186.55 103.509C1185.32 102.272 1183.31 102.272 1182.07 103.509C1180.83 104.746 1180.83 106.752 1182.07 107.989C1183.31 109.227 1185.32 109.227 1186.55 107.989Z" fill="#D31F35"/>
<path d="M1205.11 96.2976C1206.81 95.8955 1207.86 94.1891 1207.46 92.4863C1207.06 90.7835 1205.35 89.729 1203.65 90.1311C1201.95 90.5332 1200.89 92.2396 1201.29 93.9424C1201.7 95.6452 1203.4 96.6997 1205.11 96.2976Z" fill="#D31F35"/>
<path d="M1196.12 95.4714C1197.36 94.2342 1197.36 92.2282 1196.12 90.991C1194.88 89.7537 1192.87 89.7537 1191.64 90.991C1190.4 92.2282 1190.4 94.2342 1191.64 95.4714C1192.87 96.7087 1194.88 96.7086 1196.12 95.4714Z" fill="#D31F35"/>
<path d="M1185.02 96.2949C1186.73 95.8928 1187.78 94.1865 1187.38 92.4836C1186.98 90.7808 1185.27 89.7263 1183.57 90.1284C1181.86 90.5305 1180.81 92.2369 1181.21 93.9397C1181.61 95.6425 1183.32 96.697 1185.02 96.2949Z" fill="#D31F35"/>
<path d="M1217.82 280.499H1394.98V247.879L1217.82 247.879V280.499Z" fill="#D31F35"/>
<path d="M1394.98 255.495V195.526L1378.93 179.491L1363.28 194.88V254.17L1394.98 255.495Z" fill="#D31F35"/>
<path d="M1304.75 254.267L1378.97 180.558L1408.07 208.619L1409.14 207.52L1378.94 178.392L1303.65 253.168L1304.75 254.267Z" fill="#D31F35"/>
<path d="M1342.03 177.371L1266.52 251.392L1267.61 252.5L1343.12 178.479L1342.03 177.371Z" fill="#D31F35"/>
<path d="M1283.82 278.772H1282.27V299.817H1283.82V278.772Z" fill="#D31F35"/>
<path d="M1277.68 278.772H1276.13V320.734H1277.68V278.772Z" fill="#D31F35"/>
<path d="M1268.43 278.772H1266.88V320.734H1268.43V278.772Z" fill="#D31F35"/>
<path d="M1259.18 278.772H1257.63V332.469H1259.18V278.772Z" fill="#D31F35"/>
<path d="M1249.93 278.772H1248.38V334.15H1249.93V278.772Z" fill="#D31F35"/>
<path d="M1240.65 278.772H1239.1V341.877H1240.65V278.772Z" fill="#D31F35"/>
<path d="M1231.4 278.772H1229.85V338.288H1231.4V278.772Z" fill="#D31F35"/>
<path d="M1222.15 278.772H1220.6V337.836H1222.15V278.772Z" fill="#D31F35"/>
<path d="M1242.75 167.692L1217.27 143.607L1218.33 142.476L1242.75 165.59V167.692Z" fill="#D31F35"/>
<path d="M1242.75 161.549L1217.27 137.432L1218.33 136.301L1242.75 159.416V161.549Z" fill="#D31F35"/>
<path d="M1242.75 155.375L1217.27 131.258L1218.33 130.158L1242.75 153.241V155.375Z" fill="#D31F35"/>
<path d="M1242.75 149.2L1217.27 125.115L1218.33 123.984L1242.75 147.098V149.2Z" fill="#D31F35"/>
<path d="M1242.75 143.057L1217.27 118.941L1218.33 117.809L1242.75 140.924V143.057Z" fill="#D31F35"/>
<path d="M1242.75 136.883L1217.27 112.766L1218.33 111.667L1242.75 134.749V136.883Z" fill="#D31F35"/>
<path d="M1242.75 130.708L1217.27 106.623L1218.33 105.492L1242.75 128.574V130.708Z" fill="#D31F35"/>
<path d="M1242.75 124.533L1217.27 100.449L1218.33 99.3171L1242.75 122.432V124.533Z" fill="#D31F35"/>
<path d="M1242.75 118.391L1217.27 94.2741L1218.33 93.1426L1242.75 116.257V118.391Z" fill="#D31F35"/>
<path d="M1242.75 112.216L1217.27 88.0994L1218.33 87.0002L1242.75 110.083V112.216Z" fill="#D31F35"/>
<path d="M1242.75 106.042L1217.27 81.9569L1218.33 80.8254L1242.75 103.94V106.042Z" fill="#D31F35"/>
<path d="M1242.75 99.8993L1217.27 75.7824L1218.33 74.6509L1242.75 97.7656V99.8993Z" fill="#D31F35"/>
<path d="M1242.75 93.7244L1217.27 69.6075L1218.33 68.5083L1242.75 91.5907V93.7244Z" fill="#D31F35"/>
<path d="M1242.75 87.5498L1217.27 63.4652L1218.33 62.3337L1242.75 85.4485V87.5498Z" fill="#D31F35"/>
<path d="M1242.75 81.375L1217.27 57.2904L1218.33 56.1589L1242.75 79.2737V81.375Z" fill="#D31F35"/>
<path d="M1242.75 75.2327L1217.27 51.1158L1218.33 50.0166L1242.75 73.099V75.2327Z" fill="#D31F35"/>
<path d="M1242.75 69.0579L1217.27 44.941L1218.33 43.8418L1242.75 66.9242V69.0579Z" fill="#D31F35"/>
<path d="M1242.75 62.8833L1217.27 38.7987L1218.33 37.6672L1242.75 60.782V62.8833Z" fill="#D31F35"/>
<path d="M1242.75 56.7408L1217.27 32.6239L1218.33 31.4924L1242.75 54.6072V56.7408Z" fill="#D31F35"/>
<path d="M1242.75 50.5662L1217.27 26.4493L1218.33 25.3501L1242.75 48.4325V50.5662Z" fill="#D31F35"/>
<path d="M1242.75 44.3914L1217.27 20.3068L1218.33 19.1753L1242.75 42.29V44.3914Z" fill="#D31F35"/>
<path d="M1242.75 38.2491L1217.27 14.1322L1218.33 13.0007L1242.75 36.1155V38.2491Z" fill="#D31F35"/>
<path d="M1242.75 32.0745L1217.27 7.95756L1218.33 6.8584L1242.75 29.9408V32.0745Z" fill="#D31F35"/>
<path d="M1242.75 25.8997L1217.27 1.81508L1218.33 0.683594L1242.75 23.766V25.8997Z" fill="#D31F35"/>
<path d="M1242.75 19.7249L1217.27 -4.35972L1218.33 -5.49121L1242.75 17.6235V19.7249Z" fill="#D31F35"/>
<path d="M1242.75 13.5826L1217.27 -10.5343L1218.33 -11.6658L1242.75 11.449V13.5826Z" fill="#D31F35"/>
<path d="M1242.75 7.40783L1217.72 -16.2888H1219.95L1242.75 5.27416V7.40783Z" fill="#D31F35"/>
<path d="M1242.75 1.23313L1224.22 -16.2888H1226.45L1242.75 -0.868214V1.23313Z" fill="#D31F35"/>
<path d="M1242.75 173.866L1217.27 149.749L1218.33 148.65L1242.75 171.733V173.866Z" fill="#D31F35"/>
<path d="M1242.75 180.041L1217.27 155.924L1218.33 154.825L1242.75 177.907V180.041Z" fill="#D31F35"/>
<path d="M1238.29 181.981L1217.3 162.099L1218.37 160.967L1240.13 181.56C1239.48 181.69 1238.87 181.819 1238.29 181.981Z" fill="#D31F35"/>
<path d="M1233.57 183.694L1217.27 168.274L1218.33 167.142L1235.12 183.015C1234.6 183.242 1234.08 183.436 1233.57 183.694Z" fill="#D31F35"/>
<path d="M1229.23 185.731L1217.27 174.416L1218.33 173.284L1230.72 184.987C1230.2 185.246 1229.72 185.505 1229.23 185.731Z" fill="#D31F35"/>
<path d="M1408.79 294.192L1464.9 280.938L1478.67 289.505L1479.48 288.179L1465.19 279.289L1408.43 292.705L1408.79 294.192Z" fill="#D31F35"/>
<path d="M1429.45 303.374L1464.67 315.917L1478.77 306.218V292.123L1464.6 283.039L1409.17 296.164L1428.9 303.18V300.044H1431.04V303.374H1429.45ZM1424.96 299.171H1422.82V295.841H1424.96V299.171ZM1431 297.942H1428.87V294.613H1431V297.942ZM1474.08 299.753H1476.21V303.665H1474.08V299.753ZM1474.08 293.384H1476.21V297.296H1474.08V293.384ZM1468.03 301.693H1470.17V305.604H1468.03V301.693ZM1468.03 295.55H1470.17V299.462H1468.03V295.55ZM1468.03 289.181H1470.17V293.093H1468.03V289.181ZM1463.41 306.897H1465.54V311.1H1463.41V306.897ZM1463.41 300.044H1465.54V304.246H1463.41V300.044ZM1463.41 293.449H1465.54V297.651H1463.41V293.449ZM1463.41 286.595H1465.54V290.798H1463.41V286.595ZM1457.68 303.891H1459.82V308.708H1457.68V303.891ZM1457.68 296.294H1459.82V301.111H1457.68V296.294ZM1457.68 288.47H1459.82V293.287H1457.68V288.47ZM1452.09 304.279H1454.22V309.096H1452.09V304.279ZM1452.09 296.714H1454.22V301.531H1452.09V296.714ZM1452.09 288.858H1454.22V293.675H1452.09V288.858ZM1445.62 298.266H1447.76V303.083H1445.62V298.266ZM1445.62 290.41H1447.76V295.227H1445.62V290.41ZM1439.51 299.785H1441.64V304.602H1439.51V299.785ZM1439.51 291.929H1441.64V296.746H1439.51V291.929ZM1434.01 298.848H1436.15V302.177H1434.01V298.848ZM1434.01 293.416H1436.15V296.746H1434.01V293.416Z" fill="#D31F35"/>
<path d="M1363.28 183.856C1363.28 184.567 1363.87 185.149 1364.58 185.149C1365.29 185.149 1365.87 184.567 1365.87 183.856C1365.87 183.145 1365.29 182.563 1364.58 182.563C1363.87 182.563 1363.28 183.145 1363.28 183.856Z" fill="#D31F35"/>
<path d="M1358.14 189.028C1358.14 189.74 1358.72 190.321 1359.43 190.321C1360.15 190.321 1360.73 189.74 1360.73 189.028C1360.73 188.317 1360.15 187.735 1359.43 187.735C1358.72 187.703 1358.14 188.285 1358.14 189.028Z" fill="#D31F35"/>
<path d="M1351.71 189.319C1351.71 190.03 1352.29 190.612 1353 190.612C1353.71 190.612 1354.29 190.03 1354.29 189.319C1354.29 188.608 1353.71 188.026 1353 188.026C1352.29 188.026 1351.71 188.608 1351.71 189.319Z" fill="#D31F35"/>
<path d="M1352.58 184.276C1352.58 184.987 1353.16 185.569 1353.87 185.569C1354.58 185.569 1355.17 184.987 1355.17 184.276C1355.17 183.565 1354.58 182.983 1353.87 182.983C1353.16 182.983 1352.58 183.565 1352.58 184.276Z" fill="#D31F35"/>
<path d="M1347.05 184.664C1347.05 185.375 1347.63 185.957 1348.34 185.957C1349.05 185.957 1349.64 185.375 1349.64 184.664C1349.64 183.953 1349.05 183.371 1348.34 183.371C1347.63 183.339 1347.05 183.92 1347.05 184.664Z" fill="#D31F35"/>
<path d="M1345.82 190.612C1345.82 191.324 1346.4 191.906 1347.11 191.906C1347.82 191.906 1348.41 191.324 1348.41 190.612C1348.41 189.901 1347.82 189.319 1347.11 189.319C1346.4 189.319 1345.82 189.901 1345.82 190.612Z" fill="#D31F35"/>
<path d="M1349.96 194.912C1349.96 195.623 1350.54 196.205 1351.25 196.205C1351.96 196.205 1352.55 195.623 1352.55 194.912C1352.55 194.201 1351.96 193.619 1351.25 193.619C1350.54 193.619 1349.96 194.201 1349.96 194.912Z" fill="#D31F35"/>
<path d="M1354.94 195.106C1354.94 195.817 1355.52 196.399 1356.23 196.399C1356.94 196.399 1357.53 195.817 1357.53 195.106C1357.53 194.395 1356.94 193.813 1356.23 193.813C1355.52 193.813 1354.94 194.363 1354.94 195.106Z" fill="#D31F35"/>
<path d="M1348.92 201.248C1348.92 201.96 1349.51 202.542 1350.22 202.542C1350.93 202.542 1351.51 201.96 1351.51 201.248C1351.51 200.537 1350.93 199.955 1350.22 199.955C1349.51 199.955 1348.92 200.537 1348.92 201.248Z" fill="#D31F35"/>
<path d="M1343.85 196.399C1343.85 197.111 1344.43 197.692 1345.14 197.692C1345.85 197.692 1346.43 197.111 1346.43 196.399C1346.43 195.688 1345.85 195.106 1345.14 195.106C1344.43 195.106 1343.85 195.688 1343.85 196.399Z" fill="#D31F35"/>
<path d="M1339.74 191.938C1339.74 192.649 1340.32 193.231 1341.03 193.231C1341.74 193.231 1342.33 192.649 1342.33 191.938C1342.33 191.227 1341.74 190.645 1341.03 190.645C1340.32 190.613 1339.74 191.194 1339.74 191.938Z" fill="#D31F35"/>
<path d="M1337.12 188.155C1337.12 188.867 1337.7 189.449 1338.41 189.449C1339.12 189.449 1339.71 188.867 1339.71 188.155C1339.71 187.444 1339.12 186.862 1338.41 186.862C1337.7 186.862 1337.12 187.444 1337.12 188.155Z" fill="#D31F35"/>
<path d="M1332.75 193.781C1332.75 194.492 1333.34 195.074 1334.05 195.074C1334.76 195.074 1335.34 194.492 1335.34 193.781C1335.34 193.069 1334.76 192.488 1334.05 192.488C1333.34 192.488 1332.75 193.069 1332.75 193.781Z" fill="#D31F35"/>
<path d="M1337.96 198.08C1337.96 198.791 1338.54 199.373 1339.25 199.373C1339.97 199.373 1340.55 198.791 1340.55 198.08C1340.55 197.369 1339.97 196.787 1339.25 196.787C1338.54 196.787 1337.96 197.369 1337.96 198.08Z" fill="#D31F35"/>
<path d="M1342.36 202.315C1342.36 203.027 1342.94 203.608 1343.65 203.608C1344.36 203.608 1344.95 203.027 1344.95 202.315C1344.95 201.604 1344.36 201.022 1343.65 201.022C1342.94 201.022 1342.36 201.604 1342.36 202.315Z" fill="#D31F35"/>
<path d="M1336.96 204.093C1336.96 204.805 1337.54 205.387 1338.25 205.387C1338.96 205.387 1339.55 204.805 1339.55 204.093C1339.55 203.382 1338.96 202.8 1338.25 202.8C1337.54 202.8 1336.96 203.35 1336.96 204.093Z" fill="#D31F35"/>
<path d="M1332.33 199.018C1332.33 199.729 1332.92 200.311 1333.63 200.311C1334.34 200.311 1334.92 199.729 1334.92 199.018C1334.92 198.307 1334.34 197.725 1333.63 197.725C1332.92 197.725 1332.33 198.274 1332.33 199.018Z" fill="#D31F35"/>
<path d="M1325.51 199.535C1325.51 200.246 1326.09 200.828 1326.8 200.828C1327.51 200.828 1328.1 200.246 1328.1 199.535C1328.1 198.824 1327.51 198.242 1326.8 198.242C1326.09 198.242 1325.51 198.824 1325.51 199.535Z" fill="#D31F35"/>
<path d="M1327.26 202.768C1327.26 203.479 1327.84 204.061 1328.55 204.061C1329.26 204.061 1329.84 203.479 1329.84 202.768C1329.84 202.057 1329.26 201.475 1328.55 201.475C1327.84 201.475 1327.26 202.057 1327.26 202.768Z" fill="#D31F35"/>
<path d="M1331.01 207.294C1331.01 208.005 1331.59 208.587 1332.3 208.587C1333.01 208.587 1333.59 208.005 1333.59 207.294C1333.59 206.583 1333.01 206.001 1332.3 206.001C1331.59 205.968 1331.01 206.583 1331.01 207.294Z" fill="#D31F35"/>
<path d="M1335.34 209.913C1335.34 210.624 1335.92 211.206 1336.63 211.206C1337.35 211.206 1337.93 210.624 1337.93 209.913C1337.93 209.201 1337.35 208.619 1336.63 208.619C1335.92 208.619 1335.34 209.169 1335.34 209.913Z" fill="#D31F35"/>
<path d="M1343.39 208.361C1342.84 207.876 1342.04 207.941 1341.55 208.49C1341.07 209.04 1341.13 209.848 1341.68 210.333C1342.23 210.818 1343.04 210.753 1343.52 210.204C1344.01 209.654 1343.94 208.813 1343.39 208.361Z" fill="#D31F35"/>
<path d="M1337.51 214.956C1336.96 214.471 1336.15 214.536 1335.66 215.085C1335.18 215.635 1335.24 216.443 1335.79 216.928C1336.34 217.413 1337.15 217.348 1337.64 216.799C1338.09 216.249 1338.06 215.408 1337.51 214.956Z" fill="#D31F35"/>
<path d="M1331.62 211.4C1331.07 210.915 1330.26 210.979 1329.78 211.529C1329.29 212.079 1329.36 212.887 1329.91 213.372C1330.46 213.857 1331.27 213.792 1331.75 213.242C1332.2 212.693 1332.14 211.885 1331.62 211.4Z" fill="#D31F35"/>
<path d="M1327.68 207.262C1327.13 206.777 1326.32 206.841 1325.83 207.391C1325.35 207.94 1325.41 208.749 1325.96 209.234C1326.51 209.718 1327.32 209.654 1327.81 209.104C1328.29 208.555 1328.23 207.714 1327.68 207.262Z" fill="#D31F35"/>
<path d="M1323.12 203.091C1322.57 202.606 1321.76 202.671 1321.27 203.221C1320.79 203.77 1320.85 204.578 1321.4 205.063C1321.95 205.548 1322.76 205.484 1323.25 204.934C1323.73 204.384 1323.67 203.576 1323.12 203.091Z" fill="#D31F35"/>
<path d="M1320.46 208.135C1319.91 207.65 1319.11 207.714 1318.62 208.264C1318.14 208.813 1318.2 209.622 1318.75 210.107C1319.3 210.591 1320.11 210.527 1320.59 209.977C1321.08 209.428 1321.01 208.619 1320.46 208.135Z" fill="#D31F35"/>
<path d="M1319.49 213.921C1318.94 213.436 1318.14 213.501 1317.65 214.05C1317.17 214.6 1317.23 215.408 1317.78 215.893C1318.33 216.378 1319.14 216.313 1319.62 215.764C1320.11 215.214 1320.04 214.406 1319.49 213.921Z" fill="#D31F35"/>
<path d="M1314.74 215.602C1314.19 215.117 1313.38 215.182 1312.9 215.732C1312.41 216.281 1312.48 217.089 1313.03 217.574C1313.58 218.059 1314.38 217.995 1314.87 217.445C1315.32 216.895 1315.29 216.087 1314.74 215.602Z" fill="#D31F35"/>
<path d="M1317.97 220.258C1317.42 219.773 1316.62 219.837 1316.13 220.387C1315.65 220.936 1315.71 221.745 1316.26 222.23C1316.81 222.715 1317.62 222.65 1318.1 222.1C1318.59 221.583 1318.52 220.743 1317.97 220.258Z" fill="#D31F35"/>
<path d="M1322.76 220.807C1323.47 220.904 1324.12 220.387 1324.22 219.676C1324.31 218.964 1323.8 218.318 1323.08 218.221C1322.37 218.124 1321.73 218.641 1321.63 219.352C1321.53 220.064 1322.05 220.71 1322.76 220.807Z" fill="#D31F35"/>
<path d="M1322.76 225.915C1323.47 226.012 1324.12 225.495 1324.22 224.784C1324.31 224.072 1323.8 223.426 1323.08 223.329C1322.37 223.232 1321.73 223.749 1321.63 224.46C1321.53 225.172 1322.05 225.818 1322.76 225.915Z" fill="#D31F35"/>
<path d="M1324.31 214.341C1325.02 214.438 1325.67 213.921 1325.77 213.21C1325.86 212.499 1325.35 211.852 1324.64 211.755C1323.92 211.658 1323.28 212.175 1323.18 212.887C1323.08 213.63 1323.6 214.277 1324.31 214.341Z" fill="#D31F35"/>
<path d="M1328.87 217.898C1329.58 217.995 1330.23 217.477 1330.33 216.766C1330.43 216.055 1329.91 215.408 1329.2 215.311C1328.49 215.214 1327.84 215.732 1327.74 216.443C1327.64 217.154 1328.16 217.801 1328.87 217.898Z" fill="#D31F35"/>
<path d="M1327.97 224.008C1328.68 224.105 1329.33 223.587 1329.42 222.876C1329.52 222.165 1329 221.518 1328.29 221.421C1327.58 221.324 1326.93 221.842 1326.83 222.553C1326.74 223.264 1327.26 223.911 1327.97 224.008Z" fill="#D31F35"/>
<path d="M1322.34 231.249C1323.05 231.346 1323.7 230.829 1323.79 230.118C1323.89 229.406 1323.37 228.76 1322.66 228.663C1321.95 228.566 1321.3 229.083 1321.21 229.794C1321.11 230.506 1321.6 231.152 1322.34 231.249Z" fill="#D31F35"/>
<path d="M1316.97 233.351C1317.68 233.448 1318.33 232.93 1318.43 232.219C1318.52 231.508 1318.01 230.861 1317.3 230.764C1316.58 230.667 1315.94 231.185 1315.84 231.896C1315.74 232.607 1316.26 233.254 1316.97 233.351Z" fill="#D31F35"/>
<path d="M1316.23 228.34C1316.94 228.437 1317.59 227.919 1317.68 227.208C1317.78 226.497 1317.26 225.85 1316.55 225.753C1315.84 225.656 1315.19 226.174 1315.1 226.885C1315 227.628 1315.52 228.275 1316.23 228.34Z" fill="#D31F35"/>
<path d="M1311.34 223.846C1312.06 223.943 1312.7 223.426 1312.8 222.715C1312.9 222.003 1312.38 221.357 1311.67 221.26C1310.96 221.163 1310.31 221.68 1310.21 222.391C1310.11 223.135 1310.63 223.781 1311.34 223.846Z" fill="#D31F35"/>
<path d="M1308.17 218.803C1308.89 218.9 1309.53 218.383 1309.63 217.671C1309.73 216.96 1309.21 216.314 1308.5 216.217C1307.79 216.12 1307.14 216.637 1307.04 217.348C1306.95 218.059 1307.46 218.706 1308.17 218.803Z" fill="#D31F35"/>
<path d="M1303.49 222.941C1304.2 223.038 1304.84 222.52 1304.94 221.809C1305.04 221.098 1304.52 220.451 1303.81 220.354C1303.1 220.257 1302.45 220.775 1302.35 221.486C1302.26 222.197 1302.74 222.844 1303.49 222.941Z" fill="#D31F35"/>
<path d="M1308.95 228.825C1309.66 228.922 1310.31 228.404 1310.41 227.693C1310.5 226.982 1309.99 226.335 1309.27 226.238C1308.56 226.141 1307.92 226.659 1307.82 227.37C1307.72 228.081 1308.24 228.728 1308.95 228.825Z" fill="#D31F35"/>
<path d="M1303.07 228.34C1303.78 228.437 1304.42 227.919 1304.52 227.208C1304.62 226.497 1304.1 225.85 1303.39 225.753C1302.68 225.656 1302.03 226.174 1301.93 226.885C1301.84 227.628 1302.35 228.275 1303.07 228.34Z" fill="#D31F35"/>
<path d="M1302.29 234.935C1303 235.032 1303.65 234.514 1303.74 233.803C1303.84 233.092 1303.32 232.445 1302.61 232.348C1301.9 232.251 1301.25 232.769 1301.16 233.48C1301.06 234.191 1301.58 234.838 1302.29 234.935Z" fill="#D31F35"/>
<path d="M1307.92 234.029C1308.63 234.126 1309.27 233.609 1309.37 232.898C1309.47 232.187 1308.95 231.54 1308.24 231.443C1307.53 231.346 1306.88 231.863 1306.78 232.575C1306.69 233.318 1307.2 233.965 1307.92 234.029Z" fill="#D31F35"/>
<path d="M1313.74 236.907C1314.45 237.004 1315.1 236.486 1315.19 235.775C1315.29 235.064 1314.77 234.417 1314.06 234.32C1313.35 234.223 1312.7 234.741 1312.61 235.452C1312.51 236.163 1312.99 236.81 1313.74 236.907Z" fill="#D31F35"/>
<path d="M1311.34 242.661C1312.06 242.758 1312.7 242.241 1312.8 241.53C1312.9 240.818 1312.38 240.172 1311.67 240.075C1310.96 239.978 1310.31 240.495 1310.21 241.206C1310.11 241.918 1310.63 242.564 1311.34 242.661Z" fill="#D31F35"/>
<path d="M1306.85 239.978C1307.56 240.075 1308.21 239.558 1308.3 238.846C1308.4 238.135 1307.88 237.489 1307.17 237.392C1306.46 237.295 1305.81 237.812 1305.72 238.523C1305.62 239.234 1306.14 239.881 1306.85 239.978Z" fill="#D31F35"/>
<path d="M1307.27 245.764C1307.98 245.861 1308.63 245.344 1308.72 244.633C1308.82 243.922 1308.3 243.275 1307.59 243.178C1306.88 243.081 1306.23 243.598 1306.14 244.31C1306.04 245.021 1306.56 245.667 1307.27 245.764Z" fill="#D31F35"/>
<path d="M1301.97 246.734C1302.68 246.831 1303.32 246.314 1303.42 245.603C1303.52 244.892 1303 244.245 1302.29 244.148C1301.58 244.051 1300.93 244.568 1300.83 245.28C1300.74 245.991 1301.25 246.67 1301.97 246.734Z" fill="#D31F35"/>
<path d="M1300.38 242.144C1301.09 242.241 1301.74 241.724 1301.84 241.012C1301.93 240.301 1301.42 239.655 1300.7 239.558C1299.99 239.461 1299.35 239.978 1299.25 240.689C1299.15 241.4 1299.64 242.047 1300.38 242.144Z" fill="#D31F35"/>
<path d="M1295.59 237.682C1296.31 237.779 1296.95 237.262 1297.05 236.551C1297.15 235.84 1296.63 235.193 1295.92 235.096C1295.21 234.999 1294.56 235.516 1294.46 236.228C1294.37 236.939 1294.88 237.585 1295.59 237.682Z" fill="#D31F35"/>
<path d="M1298.02 231.605C1298.73 231.702 1299.38 231.185 1299.47 230.473C1299.57 229.762 1299.05 229.116 1298.34 229.019C1297.63 228.922 1296.98 229.439 1296.89 230.15C1296.79 230.861 1297.31 231.508 1298.02 231.605Z" fill="#D31F35"/>
<path d="M1292.88 233.351C1293.59 233.448 1294.24 232.93 1294.33 232.219C1294.43 231.508 1293.91 230.861 1293.2 230.764C1292.49 230.667 1291.84 231.185 1291.75 231.896C1291.65 232.607 1292.17 233.254 1292.88 233.351Z" fill="#D31F35"/>
<path d="M1288.16 238.006C1288.87 238.103 1289.51 237.585 1289.61 236.874C1289.71 236.163 1289.19 235.516 1288.48 235.419C1287.77 235.322 1287.12 235.84 1287.02 236.551C1286.93 237.294 1287.44 237.941 1288.16 238.006Z" fill="#D31F35"/>
<path d="M1284.99 243.437C1285.7 243.534 1286.34 243.017 1286.44 242.305C1286.54 241.594 1286.02 240.948 1285.31 240.851C1284.6 240.754 1283.95 241.271 1283.85 241.982C1283.76 242.726 1284.27 243.372 1284.99 243.437Z" fill="#D31F35"/>
<path d="M1289.74 245.603C1290.45 245.7 1291.1 245.183 1291.2 244.471C1291.29 243.76 1290.78 243.114 1290.06 243.017C1289.35 242.92 1288.71 243.437 1288.61 244.148C1288.51 244.859 1289 245.538 1289.74 245.603Z" fill="#D31F35"/>
<path d="M1294.62 243.793C1295.34 243.89 1295.98 243.372 1296.08 242.661C1296.18 241.95 1295.66 241.303 1294.95 241.206C1294.24 241.109 1293.59 241.627 1293.49 242.338C1293.4 243.049 1293.91 243.696 1294.62 243.793Z" fill="#D31F35"/>
<path d="M1294.62 243.793C1295.34 243.89 1295.98 243.372 1296.08 242.661C1296.18 241.95 1295.66 241.303 1294.95 241.206C1294.24 241.109 1293.59 241.627 1293.49 242.338C1293.4 243.049 1293.91 243.696 1294.62 243.793Z" fill="#D31F35"/>
<path d="M1279.84 247.058C1280.56 247.155 1281.2 246.637 1281.3 245.926C1281.4 245.215 1280.88 244.568 1280.17 244.471C1279.46 244.374 1278.81 244.892 1278.71 245.603C1278.62 246.314 1279.13 246.961 1279.84 247.058Z" fill="#D31F35"/>
<path d="M1342.36 185.763C1342.36 186.475 1342.94 187.056 1343.65 187.056C1344.36 187.056 1344.95 186.475 1344.95 185.763C1344.95 185.052 1344.36 184.47 1343.65 184.47C1342.94 184.47 1342.36 185.052 1342.36 185.763Z" fill="#D31F35"/>
</g>
</svg>
