
<svg width="51" height="57" viewBox="0 0 51 57" fill="none" xmlns="http://www.w3.org/2000/svg">
<g clip-path="url(#clip0_1_2437)">
<path d="M47.393 33.2726C46.1159 35.6024 41.4396 43.0697 30.6174 50.5426C29.1272 51.5731 27.5192 52.6017 25.7877 53.6173C25.7728 53.621 25.7447 53.6248 25.7073 53.6248C25.6699 53.6248 25.6419 53.621 25.6269 53.6173C23.6936 52.4841 21.9173 51.3323 20.285 50.1861C9.82734 42.8363 5.27817 35.565 4.02169 33.2726C3.93755 33.1157 3.84219 32.6285 3.87023 32.3802L5.15103 20.5352H46.2599L47.5463 32.3821C47.5725 32.6285 47.4771 33.1157 47.393 33.2726Z" fill="#A52457"/>
<path d="M50.9849 31.979L49.5994 19.2248L48.5187 9.269C48.4588 8.70335 47.9745 8.07983 47.4417 7.87821C43.7115 6.46689 30.2584 1.3891 26.4871 0.136457C25.9449 -0.0427593 25.053 -0.0427593 24.5107 0.136457C20.7394 1.38723 7.28637 6.46502 3.55616 7.87635C3.02328 8.07796 2.53901 8.70148 2.47917 9.26714L1.39844 19.223L0.0129403 31.979C-0.0487623 32.5447 0.09895 33.424 0.371937 33.9224C2.07156 37.0213 8.64569 47.4271 24.6024 56.7836C25.096 57.0711 25.8981 57.0711 26.3917 56.7818C42.3503 47.4252 48.9244 37.0213 50.6222 33.9224C50.8989 33.424 51.0466 32.5447 50.9849 31.979ZM49.1749 33.1309C47.5875 36.0263 41.1966 46.18 25.5877 55.3406C25.5709 55.3443 25.541 55.348 25.4998 55.348C25.4587 55.348 25.4269 55.3443 25.412 55.3406C9.80122 46.18 3.41219 36.0263 1.82475 33.1309C1.73126 32.9591 1.62843 32.4271 1.66021 32.1564L3.06067 19.2248H47.939L49.3432 32.1564C49.3713 32.4271 49.2666 32.9591 49.1749 33.1309Z" fill="#1A202C"/>
<path d="M30.6175 20.1879V50.8096C29.1273 51.8475 27.5193 52.8874 25.7879 53.9123C25.7729 53.916 25.7449 53.9197 25.7075 53.9197C25.6701 53.9197 25.6421 53.916 25.6271 53.9123C23.6938 52.7698 21.9175 51.6086 20.2852 50.4512V20.1898H30.6175V20.1879Z" fill="white"/>
<path d="M36.2837 36.7011C37.4479 30.7535 33.5626 24.9897 27.6056 23.8273C21.6486 22.6649 15.8757 26.5442 14.7115 32.4918C13.5473 38.4394 17.4326 44.2032 23.3896 45.3656C29.3466 46.528 35.1195 42.6488 36.2837 36.7011Z" fill="white"/>
<path d="M35.1873 34.3852C35.1817 34.1033 35.163 33.8233 35.1312 33.5451C34.8676 31.163 33.7214 28.9434 31.9171 27.3472C30.999 26.5352 29.909 25.8836 28.6805 25.458C25.2401 24.2651 21.5754 25.1294 19.0362 27.3958C18.1724 28.1668 17.4394 29.1002 16.8878 30.168L16.8841 30.1662C16.8804 30.1755 16.8766 30.1867 16.8729 30.1979C16.6747 30.5881 16.4971 30.9969 16.3493 31.4225C16.1044 32.1245 15.9473 32.8357 15.8688 33.547C15.837 33.827 15.8202 34.107 15.8146 34.3852C15.8015 35.0125 15.8501 35.6341 15.9567 36.2446L15.9847 36.3939C16.6148 39.6814 18.9352 42.5601 22.3233 43.7343C23.3423 44.0871 24.3819 44.2607 25.4047 44.2701C25.4383 44.2701 25.4701 44.2701 25.5019 44.2701C29.5107 44.2663 33.2671 41.7592 34.6544 37.7716C34.6937 37.6578 34.7311 37.5439 34.7666 37.43C34.7835 37.3759 34.8003 37.3199 34.8152 37.2639C34.819 37.2527 34.8227 37.2415 34.8246 37.2321C35.0901 36.2856 35.2079 35.3279 35.1873 34.3852ZM27.194 25.725C27.6203 25.8052 28.0485 25.9191 28.4692 26.0666C29.3125 26.3597 30.0847 26.7648 30.7728 27.2614C30.7821 27.2688 30.7915 27.2744 30.8008 27.2819C30.7765 27.308 30.7522 27.336 30.7279 27.3622C30.6643 27.323 30.5989 27.2838 30.5335 27.2464C29.6266 26.72 28.5758 26.3597 27.7998 26.1413C27.1697 25.9639 26.721 25.878 26.6761 25.8687L26.6742 25.878L26.2105 25.598C26.5396 25.6185 26.865 25.6615 27.194 25.725ZM26.6051 26.2421C26.6219 26.2458 27.5119 26.4157 28.5721 26.7853C28.8974 26.8992 29.2377 27.0317 29.5743 27.183C30.0324 27.3883 30.4792 27.631 30.8663 27.9148C31.2945 28.3852 31.9582 29.1879 32.1078 29.7891C31.7507 30.0485 31.3244 30.3528 30.9261 30.6291C30.6344 30.8307 30.3558 31.0212 30.1296 31.1668C29.5256 30.8027 27.4315 29.9664 26.6499 29.9347C26.2031 28.8202 25.4065 27.5993 25.0569 27.0877C25.0531 27.0821 25.0494 27.0765 25.0457 27.0709C25.414 26.7965 26.6051 26.2421 26.6051 26.2421ZM30.0866 33.9838C30.0866 33.9838 29.722 31.8519 29.5986 31.7884C28.6955 31.3367 27.0613 30.7206 26.7733 30.9409C25.6141 31.8295 25.6926 31.9826 25.3878 32.1487C25.3878 32.1487 26.663 30.3715 26.9491 30.4331C27.5773 30.5657 29.6659 31.3815 29.8304 31.641C29.9931 31.9042 30.0866 33.9838 30.0866 33.9838ZM24.6998 27.2446C25.0214 27.7113 25.874 29.005 26.3134 30.1288C25.8945 30.7169 24.5427 32.6229 24.1762 33.224C22.9197 33.3024 20.8405 33.3603 20.3077 33.3734C20.0085 32.9477 19.3354 31.9564 19.111 31.346C19.7449 29.4717 21.0032 28.023 21.3828 27.6123C22.0914 27.4368 23.7125 27.0784 24.6998 27.2446ZM19.685 33.3976C19.5897 33.1326 18.651 31.7754 18.5501 31.7735C18.4491 31.7716 17.6488 32.1655 17.6488 32.1655C17.6488 32.1655 18.6398 31.3217 18.7296 31.4543C18.8193 31.5868 19.9543 33.3043 19.9337 33.4667C19.9113 33.6291 19.6701 34.6148 19.6701 34.6148C19.6701 34.6148 19.7355 33.5395 19.685 33.3976ZM20.1786 27.2987C20.3955 27.14 20.6199 26.9925 20.8499 26.8544L20.934 27.2427L20.9845 27.4779C20.5077 28.01 19.4326 29.3279 18.8081 31.0454C18.4304 31.2433 17.7031 31.6596 17.2412 32.1469C17.1552 31.9415 17.0767 31.6652 17.0692 31.3255C17.7161 29.6584 18.8174 28.2844 20.1786 27.2987ZM16.9738 36.0915C16.914 36.295 16.8336 36.5955 16.7588 36.9148C16.6915 36.6609 16.6335 36.4051 16.5887 36.1475C16.4858 35.5688 16.441 34.977 16.454 34.3815C16.4615 34.1033 16.4802 33.8251 16.512 33.5489C16.57 33.0616 16.6672 32.5744 16.8074 32.089C16.8673 32.2757 16.9402 32.4306 17.0056 32.5482C16.9626 32.7461 16.8953 33.1083 16.8467 33.5489C16.8187 33.8046 16.7962 34.0884 16.7906 34.3796C16.7813 34.9284 16.8299 35.5072 16.9982 36.0093C16.9925 36.0317 16.9832 36.0597 16.9738 36.0915ZM18.9577 40.8332C18.0938 39.9278 17.4319 38.8525 17.0038 37.6876C17.0561 37.3087 17.1758 36.8046 17.2936 36.3734C17.6096 36.5377 18.2677 36.8457 18.9165 36.9484C18.9035 36.926 18.896 36.911 18.8922 36.9054L19.1353 36.9745L19.197 36.6123C19.1989 36.6142 19.212 36.6366 19.2344 36.6777C19.3111 36.4518 19.427 36.1176 19.5541 35.7517C19.7187 35.285 19.9094 34.766 20.0758 34.3497C20.173 34.107 20.2647 33.8998 20.3357 33.7598C20.8948 33.7449 22.901 33.687 24.1538 33.6123C24.2454 33.7878 24.4212 34.0342 24.6399 34.3143C24.8587 34.5943 25.1223 34.9042 25.3897 35.2047C25.3934 35.2085 25.3953 35.2122 25.3991 35.2141C25.4308 35.2495 25.4645 35.2869 25.4963 35.3223C25.9506 35.8227 26.4013 36.2763 26.6518 36.4704C26.4723 36.9073 25.9488 38.1842 25.4963 39.2744C25.4626 39.3547 25.4308 39.4331 25.3991 39.5097C25.3205 39.6963 25.2476 39.8737 25.1784 40.0361C24.8176 40.1556 23.7798 40.4169 21.9474 40.2769C20.9378 39.5787 19.4831 37.1089 19.2325 36.6758C19.1708 36.8606 19.1334 36.9726 19.1334 36.9726C19.0605 36.967 18.9876 36.9577 18.9147 36.9465C19.1241 37.3031 20.4965 39.6161 21.581 40.4823C21.5754 40.7474 21.566 41.1954 21.566 41.5893C21.566 41.7891 21.5679 41.9757 21.5735 42.1195C20.9247 42.112 20.2833 41.8656 19.8813 41.677C19.5541 41.4176 19.2456 41.1338 18.9577 40.8332ZM22.5308 43.1294C22.0073 42.9484 21.5099 42.7225 21.0425 42.4574C21.3211 42.504 21.6128 42.5209 21.9026 42.491C22.5103 42.715 23.8901 43.2097 24.6324 43.3535C24.6942 43.4356 24.7951 43.5271 24.9541 43.6129C24.1463 43.5644 23.333 43.4076 22.5308 43.1294ZM23.131 40.7343C23.2395 40.7492 24.9933 40.4972 25.1354 40.6372C25.2794 40.7772 26.3022 41.7443 26.3022 41.7443C26.3022 41.7443 25.27 40.9676 24.9765 40.8986C24.6829 40.8332 23.131 40.7343 23.131 40.7343ZM26.6462 43.5551C26.1245 43.542 25.7581 43.4841 25.5 43.4113C25.4664 43.402 25.4327 43.3908 25.4028 43.3815C25.3056 43.3497 25.227 43.3161 25.1635 43.2825C25.2326 43.2527 25.313 43.2153 25.4028 43.1761C25.4346 43.163 25.4664 43.1481 25.5 43.1332C25.9862 42.9129 26.6612 42.5899 27.0632 42.336C27.4539 42.308 29.7949 42.1027 31.4721 40.9135L31.7843 41.0909C30.3839 42.4387 28.5758 43.3068 26.6462 43.5551ZM31.5918 40.3311C30.1763 41.5482 27.9214 41.8656 27.2127 41.9347C26.9584 41.7592 26.4779 41.4082 26.046 40.962C25.8441 40.7548 25.6533 40.5271 25.5019 40.2881C25.5 40.2863 25.5 40.2844 25.4982 40.2825C25.5 40.2788 25.5 40.2769 25.5019 40.2732C26.031 39.0131 26.9173 36.8513 27.0613 36.5022C27.7157 36.3379 29.477 35.8861 30.1745 35.5818C30.3297 35.7144 30.5204 35.8787 30.7279 36.0635C31.3487 36.6142 32.1228 37.3273 32.5472 37.8164C32.4163 38.7704 31.919 39.7617 31.5918 40.3311ZM34.0168 35.8021C33.9851 36.0784 33.9421 36.3603 33.8878 36.6459C33.8878 36.6459 33.0502 37.3087 32.751 37.4673C32.2387 36.898 31.4197 36.1587 30.8644 35.6714C30.7017 35.5296 30.5615 35.4082 30.4587 35.3205C30.4587 35.2738 30.4587 35.2103 30.4568 35.1301C30.4549 34.9396 30.4512 34.6652 30.4456 34.3479C30.4418 34.0996 30.4362 33.8251 30.4306 33.547C30.4101 32.7349 30.3801 31.8799 30.3353 31.4916C30.5465 31.3553 30.7896 31.1929 31.0364 31.023C31.517 30.6907 32.0125 30.336 32.3097 30.1195C32.6912 30.5134 33.8673 31.906 33.8673 31.906C33.871 31.9191 34.0131 32.5669 34.0729 33.5451C34.0879 33.8009 34.0991 34.079 34.0991 34.3759C34.0954 34.8202 34.0729 35.3018 34.0168 35.8021ZM34.4282 36.0597C34.3964 36.2558 34.3571 36.4518 34.3104 36.6497C34.3029 36.6329 34.2954 36.6161 34.288 36.6011C34.3235 36.4051 34.3534 36.211 34.3777 36.0205C34.4544 35.4381 34.4824 34.8836 34.4824 34.3796C34.4824 34.0828 34.4731 33.8046 34.4581 33.547C34.4506 33.4163 34.4413 33.2912 34.4319 33.1736C34.4506 33.2987 34.4693 33.4219 34.4843 33.547C34.5161 33.8233 34.5366 34.1014 34.5441 34.3815C34.5572 34.9359 34.5198 35.4978 34.4282 36.0597Z" fill="#1A202C"/>
<path d="M6.69885 12.9446V13.9378H8.02079V14.4642H6.69885V15.9147H6.12109V12.4014H8.15167V12.9427H6.69885V12.9446Z" fill="white"/>
<path d="M10.5186 14.1581C10.5186 13.1182 11.3076 12.336 12.3734 12.336C13.4448 12.336 14.2282 13.1145 14.2282 14.1581C14.2282 15.2016 13.4448 15.9801 12.3734 15.9801C11.3076 15.9801 10.5186 15.1979 10.5186 14.1581ZM13.6411 14.1581C13.6411 13.43 13.1026 12.8886 12.3734 12.8886C11.6498 12.8886 11.1075 13.4356 11.1075 14.1581C11.1075 14.8749 11.6498 15.4275 12.3734 15.4275C13.1026 15.4275 13.6411 14.8805 13.6411 14.1581Z" fill="white"/>
<path d="M16.6797 14.1581C16.6797 13.1182 17.4687 12.336 18.5345 12.336C19.6059 12.336 20.3893 13.1145 20.3893 14.1581C20.3893 15.2016 19.6059 15.9801 18.5345 15.9801C17.4687 15.9801 16.6797 15.1979 16.6797 14.1581ZM19.8022 14.1581C19.8022 13.43 19.2637 12.8886 18.5345 12.8886C17.8109 12.8886 17.2687 13.4356 17.2687 14.1581C17.2687 14.8749 17.8109 15.4275 18.5345 15.4275C19.2637 15.4275 19.8022 14.8805 19.8022 14.1581Z" fill="white"/>
<path d="M25.2249 12.939H24.1891V15.9147H23.6169V12.939H22.5811V12.4014H25.2249V12.939Z" fill="white"/>
<path d="M30.316 14.9309C30.316 15.4835 29.8392 15.9147 29.2353 15.9147H27.7881V12.4014H29.2054C29.7944 12.4014 30.2263 12.7878 30.2263 13.3049C30.2263 13.6111 30.0711 13.9172 29.8187 14.0834C30.129 14.2346 30.316 14.5557 30.316 14.9309ZM29.1698 12.9334H28.3546V13.8463H29.1698C29.4522 13.8463 29.6523 13.6447 29.6523 13.3889C29.6523 13.1238 29.4466 12.9334 29.1698 12.9334ZM29.1998 15.3622C29.5064 15.3622 29.727 15.1568 29.727 14.8656C29.727 14.58 29.5064 14.369 29.1998 14.369H28.3546V15.3622H29.1998Z" fill="white"/>
<path d="M35.069 15.1512H33.5003L33.1992 15.9147H32.5859L34.0032 12.4014H34.5455L35.9983 15.9147H35.3756L35.069 15.1512ZM33.7022 14.636H34.8689L34.28 13.1556L33.7022 14.636Z" fill="white"/>
<path d="M40.5682 15.3771V15.9147H38.5264V12.4014H39.1041V15.3771H40.5682Z" fill="white"/>
<path d="M45.1717 15.3771V15.9147H43.1299V12.4014H43.7076V15.3771H45.1717Z" fill="white"/>
<path d="M33.9061 7.48972L26.5355 4.82015C26.0493 4.64467 25.264 4.64467 24.7779 4.82015L17.4072 7.48972H33.9061Z" fill="white"/>
</g>
<defs>
<clipPath id="clip0_1_2437">
<rect width="51" height="57" fill="white"/>
</clipPath>
</defs>
</svg>
